<?xml version="1.0" encoding="utf-8"?>
<!-- Generator: Adobe Illustrator 19.2.0, SVG Export Plug-In . SVG Version: 6.00 Build 0)  -->
<svg version="1.1" id="Layer_1" xmlns="http://www.w3.org/2000/svg" xmlns:xlink="http://www.w3.org/1999/xlink" x="0px" y="0px"
	 viewBox="0 0 92.2 91.2" style="enable-background:new 0 0 92.2 91.2;" xml:space="preserve">
<style type="text/css">
	.st0{fill:none;}
	.st1{fill:#C12026;}
	.st2{fill:#FA6A39;stroke:#FFFFFF;stroke-width:2;stroke-miterlimit:22.9256;}
	.st3{fill:none;stroke:#FFFFFF;stroke-width:0.7005;stroke-miterlimit:22.9256;}
	.st4{fill:none;stroke:#FFFFFF;stroke-width:2;stroke-miterlimit:22.9256;}
	.st5{fill:#FFFFFF;stroke:#000000;stroke-miterlimit:10;}
	.st6{fill:none;stroke:#FFFFFF;stroke-width:2;stroke-linecap:round;stroke-linejoin:bevel;stroke-miterlimit:10;}
	.st7{fill:none;stroke:#FFFFFF;stroke-width:2;stroke-linecap:round;stroke-linejoin:round;stroke-miterlimit:22.9256;}
	.st8{fill:#FFFFFF;stroke:#FFFFFF;stroke-width:0.2652;stroke-miterlimit:22.9256;}
	.st9{fill:none;stroke:#FFFFFF;stroke-width:2;stroke-linecap:round;stroke-miterlimit:22.9256;}
	.st10{fill:none;stroke:#FFFFFF;stroke-miterlimit:22.9256;}
</style>
<rect x="201" y="-572.5" class="st0" width="108" height="116"/>
<rect x="201" y="-572.5" class="st0" width="108" height="116"/>
<path class="st1" d="M9,7.5c5.8-4.9,29.3-3.1,41-0.3c13.4,3.3,36.5,13,38.7,22.4C91.4,40.8,77.4,57.7,66,68.1
	C54.1,79,36.3,90.4,29.7,88.2c-6-2.1-16.7-19.1-21.5-37.3C3.1,31.8,4.2,11.6,9,7.5z"/>
<path class="st2" d="M9,7.5c5.8-4.9,29.3-3.1,41-0.3c13.4,3.3,36.5,13,38.7,22.4C91.4,40.8,77.4,57.7,66,68.1
	C54.1,79,36.3,90.4,29.7,88.2c-6-2.1-16.7-19.1-21.5-37.3C3.1,31.8,4.2,11.6,9,7.5z"/>
<path class="st3" d="M44.6,2.8"/>
<path class="st3" d="M70.6,64"/>
<line class="st4" x1="27" y1="86.7" x2="43.8" y2="5.5"/>
<path class="st3" d="M44.6,2.8"/>
<path class="st3" d="M70.6,64"/>
<line class="st4" x1="60.3" y1="73" x2="51.8" y2="7.7"/>
<path class="st5" d="M44.5,84.2"/>
<line class="st6" x1="61.8" y1="11.5" x2="84.5" y2="45.3"/>
<line class="st4" x1="74.4" y1="59.9" x2="9.4" y2="7.1"/>
<line class="st7" x1="8.9" y1="49.8" x2="25.7" y2="5"/>
<line class="st4" x1="84.2" y1="23.1" x2="18.5" y2="75.3"/>
<ellipse transform="matrix(0.9665 -0.2568 0.2568 0.9665 -9.8502 16.1035)" class="st8" cx="56.7" cy="45.8" rx="4.9" ry="4.9"/>
<ellipse transform="matrix(0.9665 -0.2568 0.2568 0.9665 -6.585 11.0256)" class="st8" cx="38.9" cy="30.7" rx="4.9" ry="4.9"/>
<ellipse transform="matrix(0.9665 -0.2568 0.2568 0.9665 -3.573 6.089)" class="st8" cx="21.5" cy="16.7" rx="4.9" ry="4.9"/>
<ellipse transform="matrix(0.9665 -0.2568 0.2568 0.9665 -8.8039 4.8595)" class="st8" cx="14.2" cy="36.1" rx="4.9" ry="4.9"/>
<ellipse transform="matrix(0.9665 -0.2568 0.2568 0.9665 -15.533 10.3183)" class="st8" cx="31.7" cy="64.6" rx="4.9" ry="4.9"/>
<ellipse transform="matrix(0.9665 -0.2568 0.2568 0.9665 -5.3316 20.2656)" class="st8" cx="74.9" cy="30.5" rx="4.9" ry="4.9"/>
<line class="st9" x1="98.2" y1="76.3" x2="115" y2="-4.8"/>
<path class="st10" d="M-5.5,16.6"/>
<line class="st10" x1="13.1" y1="40.8" x2="8.5" y2="52.2"/>
<line class="st10" x1="76.1" y1="33.5" x2="84.5" y2="46.2"/>
<line class="st10" x1="60.5" y1="10.4" x2="71.8" y2="27"/>
</svg>
