<?xml version="1.0" encoding="utf-8"?>
<!-- Generator: Adobe Illustrator 19.2.0, SVG Export Plug-In . SVG Version: 6.00 Build 0)  -->
<svg version="1.1" id="Layer_1" xmlns="http://www.w3.org/2000/svg" xmlns:xlink="http://www.w3.org/1999/xlink" x="0px" y="0px"
	 viewBox="0 0 1415.5 470.3" style="enable-background:new 0 0 1415.5 470.3;" xml:space="preserve">
<style type="text/css">
	.st0{fill:none;stroke:#A09F9F;stroke-width:2;stroke-miterlimit:10;stroke-dasharray:4,8,0,0,0,0;}
	.st1{fill:#2D5B72;}
	.st2{fill:#FFFFFF;}
	.st3{fill:#39C9FA;}
	.st4{fill:#FA6A57;}
	.st5{fill:#00A3AD;}
	.st6{fill:none;stroke:#A09F9F;stroke-width:3;stroke-linecap:round;stroke-miterlimit:10;stroke-dasharray:0,10,0,0,0,0;}
	.st7{fill:#EC008C;}
	.st8{fill:none;stroke:#A09F9F;stroke-width:3;stroke-linecap:round;stroke-miterlimit:10;stroke-dasharray:0,9,0,0,0,0;}
	.st9{fill:#F2A135;}
</style>
<path class="st0" d="M536,178"/>
<path class="st0" d="M662.2,294"/>
<path class="st0" d="M1039.6,108.1"/>
<path class="st0" d="M1176.5,289.2"/>
<path class="st0" d="M539,156.7"/>
<path class="st0" d="M446,282"/>
<path class="st0" d="M1022.9,106.2"/>
<path class="st0" d="M943.5,229.2"/>
<path class="st0" d="M802,67"/>
<path class="st0" d="M921,232"/>
<path class="st0" d="M703.5,77"/>
<path class="st0" d="M613.2,309.7"/>
<g>
	<g>
		<g>
			<path class="st1" d="M63.1,330c-23,0-34.4,16.4-34.4,36.6s34.4,66.5,34.4,66.5s34.4-46.3,34.4-66.5S86.1,330,63.1,330z"/>
		</g>
		<ellipse class="st2" cx="62.8" cy="363.6" rx="17.3" ry="17.1"/>
	</g>
</g>
<g>
	<g>
		<g>
			<path class="st3" d="M281.5,40.3c-9.4,0-14.2,6.7-14.2,15s14.2,27.3,14.2,27.3s14.2-19,14.2-27.3S291,40.3,281.5,40.3z"/>
		</g>
		<ellipse class="st2" cx="281.4" cy="54.1" rx="7.1" ry="7"/>
	</g>
</g>
<g>
	<g>
		<path class="st4" d="M535.3,130.8c-11.8,0-17.6,8.4-17.6,18.7s17.6,34,17.6,34s17.6-23.7,17.6-34S547,130.8,535.3,130.8z"/>
	</g>
	<g>
		<ellipse class="st2" cx="535.2" cy="148" rx="8.9" ry="8.8"/>
	</g>
</g>
<g>
	<g>
		<path class="st1" d="M797.3,72.6c-9.6,0-14.4,6.9-14.4,15.3s14.4,27.7,14.4,27.7s14.4-19.3,14.4-27.7S806.9,72.6,797.3,72.6z"/>
	</g>
	<ellipse class="st2" cx="797.2" cy="86.6" rx="7.2" ry="7.1"/>
</g>
<g>
	<g>
		<g>
			<path class="st5" d="M1073.3,80.8c-10.6,0-15.8,7.6-15.8,16.9s15.8,30.6,15.8,30.6s15.8-21.3,15.8-30.6S1083.9,80.8,1073.3,80.8z
				"/>
		</g>
		<ellipse class="st2" cx="1073.2" cy="96.3" rx="8" ry="7.9"/>
	</g>
</g>
<g>
	<g>
		<g>
			<path class="st4" d="M1291.9,305.1c-20.4,0-30.4,14.5-30.4,32.4s30.4,58.9,30.4,58.9s30.4-41,30.4-58.9
				C1322.3,319.7,1312.2,305.1,1291.9,305.1z"/>
		</g>
		<g>
			<ellipse class="st2" cx="1291.6" cy="334.9" rx="15.3" ry="15.2"/>
		</g>
	</g>
</g>
<line class="st6" x1="270.8" y1="76.4" x2="94.3" y2="333.5"/>
<line class="st6" x1="292" y1="75.5" x2="409.7" y2="274.1"/>
<line class="st6" x1="525" y1="176" x2="449.7" y2="270.8"/>
<line class="st6" x1="547.4" y1="174.9" x2="673.9" y2="304.3"/>
<g>
	<g>
		<g>
			<path class="st7" d="M430.1,270.4c-16,0-23.9,11.4-23.9,25.5c0,14.1,23.9,46.3,23.9,46.3s23.9-32.2,23.9-46.3
				C454.1,281.9,446.1,270.4,430.1,270.4z"/>
		</g>
		<g>
			<ellipse class="st2" cx="429.9" cy="293.8" rx="12" ry="12"/>
		</g>
	</g>
</g>
<line class="st8" x1="787.7" y1="113.5" x2="700.1" y2="309.2"/>
<g>
	<g>
		<path class="st3" d="M692.6,307.9c-17.2,0-25.7,11.4-25.7,25.5s25.7,46.3,25.7,46.3s25.7-32.2,25.7-46.3S709.8,307.9,692.6,307.9z
			"/>
	</g>
	<g>
		<ellipse class="st2" cx="693" cy="330.8" rx="12.9" ry="11.9"/>
	</g>
</g>
<line class="st6" x1="808.2" y1="109.9" x2="926.4" y2="242"/>
<line class="st8" x1="1058.6" y1="121.1" x2="950.3" y2="241.3"/>
<line class="st6" x1="1087.4" y1="121.8" x2="1272.9" y2="307.5"/>
<g>
	<g>
		<path class="st9" d="M940.5,237.3c-13.7,0-20.4,9.7-20.4,21.8c0,12,20.4,39.5,20.4,39.5s20.4-27.5,20.4-39.5
			C960.9,247.1,954.1,237.3,940.5,237.3z"/>
	</g>
	<g>
		<ellipse class="st2" cx="940.3" cy="257.3" rx="10.3" ry="10.2"/>
	</g>
</g>
</svg>
