<?xml version="1.0" standalone="no"?><!-- Generator: Gravit.io --><svg xmlns="http://www.w3.org/2000/svg" xmlns:xlink="http://www.w3.org/1999/xlink" style="isolation:isolate" viewBox="0 0 1792 1792" width="1792" height="1792"><defs><clipPath id="_clipPath_z8YxQgTvryXjUnXoewqzobBcQKB2yBUR"><rect width="1792" height="1792"/></clipPath></defs><g clip-path="url(#_clipPath_z8YxQgTvryXjUnXoewqzobBcQKB2yBUR)"><path d=" M 1764 11 Q 1797 35 1791 75 L 1535 1611 Q 1530 1640 1503 1656 Q 1489 1664 1472 1664 Q 1461 1664 1448 1659 L 995 1474 L 753 1769 Q 735 1792 704 1792 Q 691 1792 682 1788 Q 663 1781 651.5 1764.5 Q 640 1748 640 1728 L 640 1379 L 1504 320 L 435 1245 L 40 1083 Q 3 1069 0 1028 Q -2 988 32 969 L 1696 9 Q 1711 0 1728 0 Q 1748 0 1764 11 Z " fill="rgb(255,105,51)"/></g></svg>