<?xml version="1.0" encoding="utf-8"?>
<!-- Generator: Adobe Illustrator 19.2.0, SVG Export Plug-In . SVG Version: 6.00 Build 0)  -->
<svg version="1.1" id="Layer_1" xmlns="http://www.w3.org/2000/svg" xmlns:xlink="http://www.w3.org/1999/xlink" x="0px" y="0px"
	 viewBox="0 0 92.2 91.2" style="enable-background:new 0 0 92.2 91.2;" xml:space="preserve">
<style type="text/css">
	.st0{fill:#C12026;}
	.st1{fill:none;stroke:#FFFFFF;stroke-width:0.7005;stroke-miterlimit:22.9256;}
	.st2{fill:none;}
	.st3{fill:none;stroke:#FFFFFF;stroke-width:2;stroke-miterlimit:22.9256;}
	.st4{fill:#FFFFFF;stroke:#FFFFFF;stroke-width:0.2652;stroke-miterlimit:22.9256;}
</style>
<path class="st0" d="M8.4,6.8c5.8-4.9,29.3-3.1,41-0.3c13.4,3.3,36.5,13,38.7,22.4C90.8,40.1,76.8,57,65.4,67.4
	C53.5,78.3,35.7,89.7,29.1,87.5c-6-2.1-16.7-19.1-21.5-37.3C2.5,31.1,3.6,10.9,8.4,6.8z"/>
<path class="st0" d="M8.4,6.8c5.8-4.9,29.3-3.1,41-0.3c13.4,3.3,36.5,13,38.7,22.4C90.8,40.1,76.8,57,65.4,67.4
	C53.5,78.3,35.7,89.7,29.1,87.5c-6-2.1-16.7-19.1-21.5-37.3C2.5,31.1,3.6,10.9,8.4,6.8z"/>
<path class="st1" d="M44,2.1"/>
<path class="st1" d="M70,63.3"/>
<rect x="201" y="-572.5" class="st2" width="108" height="116"/>
<line class="st3" x1="26.4" y1="86.6" x2="43.2" y2="4.8"/>
<path class="st1" d="M44,2.1"/>
<path class="st1" d="M70,63.3"/>
<line class="st3" x1="59.9" y1="72.9" x2="51.2" y2="6.3"/>
<line class="st3" x1="3.4" y1="22.8" x2="43.9" y2="83.5"/>
<line class="st3" x1="61.2" y1="9.1" x2="84.3" y2="46.1"/>
<rect x="201" y="-572.5" class="st2" width="108" height="116"/>
<line class="st3" x1="73.8" y1="59.2" x2="8.6" y2="6.2"/>
<line class="st3" x1="7.7" y1="54.1" x2="25.6" y2="3.2"/>
<line class="st3" x1="84.1" y1="22" x2="16.9" y2="75.5"/>
<ellipse transform="matrix(0.9665 -0.2568 0.2568 0.9665 -9.599 15.9048)" class="st4" cx="56.1" cy="44.7" rx="4.9" ry="4.9"/>
<ellipse transform="matrix(0.9665 -0.2568 0.2568 0.9665 -6.4306 10.8333)" class="st4" cx="38.3" cy="30" rx="4.9" ry="4.9"/>
<ellipse transform="matrix(0.9665 -0.2568 0.2568 0.9665 -3.4141 5.895)" class="st4" cx="20.9" cy="16" rx="4.9" ry="4.9"/>
<ellipse transform="matrix(0.9665 -0.2568 0.2568 0.9665 -9.1341 4.8283)" class="st4" cx="13.9" cy="37.4" rx="4.9" ry="4.9"/>
<ellipse transform="matrix(0.9665 -0.2568 0.2568 0.9665 -15.3594 10.1275)" class="st4" cx="31.1" cy="63.9" rx="4.9" ry="4.9"/>
<ellipse transform="matrix(0.9665 -0.2568 0.2568 0.9665 -5.1672 20.0924)" class="st4" cx="74.3" cy="29.8" rx="4.9" ry="4.9"/>
</svg>
