<?xml version="1.0" standalone="no"?><!-- Generator: Gravit.io --><svg xmlns="http://www.w3.org/2000/svg" xmlns:xlink="http://www.w3.org/1999/xlink" style="isolation:isolate" viewBox="0 0 92 91" width="92" height="91"><defs><clipPath id="_clipPath_ksdPF6HJi0HQkO0ze3zbutnClfACtWdl"><rect width="92" height="91"/></clipPath></defs><g clip-path="url(#_clipPath_ksdPF6HJi0HQkO0ze3zbutnClfACtWdl)"><path d=" M 8.383 6.785 C 14.17 1.896 37.618 3.692 49.293 6.486 C 62.663 9.779 85.713 19.457 87.908 28.837 C 90.602 40.012 76.633 56.875 65.258 67.252 C 53.384 78.128 35.623 89.503 29.037 87.308 C 23.05 85.213 12.374 68.25 7.584 50.09 C 2.496 31.032 3.593 10.876 8.383 6.785 Z " fill="rgb(193,32,38)"/><path d=" M 8.383 6.785 C 14.17 1.896 37.618 3.692 49.293 6.486 C 62.663 9.779 85.713 19.457 87.908 28.837 C 90.602 40.012 76.633 56.875 65.258 67.252 C 53.384 78.128 35.623 89.503 29.037 87.308 C 23.05 85.213 12.374 68.25 7.584 50.09 C 2.496 31.032 3.593 10.876 8.383 6.785 Z " fill="rgb(255,105,51)"/><rect x="200.56" y="-571.245" width="107.763" height="115.746" transform="matrix(1,0,0,1,0,0)" fill="none"/><line x1="26.343" y1="86.41" x2="43.106" y2="4.789" vector-effect="non-scaling-stroke" stroke-width="1.996" stroke="rgb(255,255,255)" stroke-linejoin="miter" stroke-linecap="butt" stroke-miterlimit="22.9256"/><line x1="59.77" y1="72.74" x2="51.089" y2="6.286" vector-effect="non-scaling-stroke" stroke-width="1.996" stroke="rgb(255,255,255)" stroke-linejoin="miter" stroke-linecap="butt" stroke-miterlimit="22.9256"/><line x1="3.394" y1="22.75" x2="43.805" y2="83.317" vector-effect="non-scaling-stroke" stroke-width="1.996" stroke="rgb(255,255,255)" stroke-linejoin="miter" stroke-linecap="butt" stroke-miterlimit="22.9256"/><line x1="61.067" y1="9.08" x2="84.116" y2="45.999" vector-effect="non-scaling-stroke" stroke-width="1.996" stroke="rgb(255,255,255)" stroke-linejoin="miter" stroke-linecap="butt" stroke-miterlimit="22.9256"/><rect x="200.56" y="-571.245" width="107.763" height="115.746" transform="matrix(1,0,0,1,0,0)" fill="none"/><line x1="73.639" y1="59.07" x2="8.582" y2="6.186" vector-effect="non-scaling-stroke" stroke-width="1.996" stroke="rgb(255,255,255)" stroke-linejoin="miter" stroke-linecap="butt" stroke-miterlimit="22.9256"/><line x1="7.684" y1="53.981" x2="25.545" y2="3.193" vector-effect="non-scaling-stroke" stroke-width="1.996" stroke="rgb(255,255,255)" stroke-linejoin="miter" stroke-linecap="butt" stroke-miterlimit="22.9256"/><line x1="83.917" y1="21.952" x2="16.864" y2="75.334" vector-effect="non-scaling-stroke" stroke-width="1.996" stroke="rgb(255,255,255)" stroke-linejoin="miter" stroke-linecap="butt" stroke-miterlimit="22.9256"/><path d=" M 51.253 45.858 C 50.56 43.25 52.115 40.57 54.723 39.877 C 57.331 39.184 60.011 40.739 60.704 43.347 C 61.397 45.955 59.842 48.635 57.234 49.328 C 54.626 50.021 51.946 48.466 51.253 45.858 Z " fill="rgb(255,255,255)" vector-effect="non-scaling-stroke" stroke-width="0.265" stroke="rgb(255,255,255)" stroke-linejoin="miter" stroke-linecap="butt" stroke-miterlimit="22.9256"/><path d=" M 33.482 31.183 C 32.789 28.575 34.344 25.895 36.952 25.202 C 39.56 24.509 42.24 26.063 42.933 28.672 C 43.626 31.28 42.071 33.96 39.463 34.653 C 36.855 35.346 34.175 33.791 33.482 31.183 Z " fill="rgb(255,255,255)" vector-effect="non-scaling-stroke" stroke-width="0.265" stroke="rgb(255,255,255)" stroke-linejoin="miter" stroke-linecap="butt" stroke-miterlimit="22.9256"/><path d=" M 16.124 17.212 C 15.431 14.604 16.986 11.924 19.594 11.231 C 22.202 10.538 24.882 12.093 25.575 14.701 C 26.268 17.309 24.713 19.989 22.105 20.682 C 19.497 21.375 16.817 19.82 16.124 17.212 Z " fill="rgb(255,255,255)" vector-effect="non-scaling-stroke" stroke-width="0.265" stroke="rgb(255,255,255)" stroke-linejoin="miter" stroke-linecap="butt" stroke-miterlimit="22.9256"/><path d=" M 9.15 38.579 C 8.457 35.971 10.012 33.291 12.62 32.598 C 15.228 31.905 17.908 33.46 18.601 36.068 C 19.294 38.676 17.739 41.356 15.131 42.049 C 12.523 42.742 9.843 41.187 9.15 38.579 Z " fill="rgb(255,255,255)" vector-effect="non-scaling-stroke" stroke-width="0.265" stroke="rgb(255,255,255)" stroke-linejoin="miter" stroke-linecap="butt" stroke-miterlimit="22.9256"/><path d=" M 26.316 65.016 C 25.623 62.408 27.178 59.728 29.786 59.035 C 32.394 58.342 35.074 59.897 35.767 62.505 C 36.46 65.113 34.905 67.793 32.297 68.486 C 29.689 69.179 27.009 67.624 26.316 65.016 Z " fill="rgb(255,255,255)" vector-effect="non-scaling-stroke" stroke-width="0.265" stroke="rgb(255,255,255)" stroke-linejoin="miter" stroke-linecap="butt" stroke-miterlimit="22.9256"/><path d=" M 69.409 31.004 C 68.716 28.396 70.271 25.716 72.879 25.023 C 75.487 24.33 78.167 25.885 78.86 28.493 C 79.553 31.101 77.998 33.781 75.39 34.474 C 72.782 35.167 70.102 33.612 69.409 31.004 Z " fill="rgb(255,255,255)" vector-effect="non-scaling-stroke" stroke-width="0.265" stroke="rgb(255,255,255)" stroke-linejoin="miter" stroke-linecap="butt" stroke-miterlimit="22.9256"/></g></svg>